<svg xmlns="http://www.w3.org/2000/svg" width="200" height="200" viewBox="0 0 200 200">
  <defs>
    <linearGradient id="featureGradient6" x1="0%" y1="0%" x2="100%" y2="100%">
      <stop offset="0%" stop-color="#10b981" stop-opacity="0.2"/>
      <stop offset="100%" stop-color="#10b981" stop-opacity="0.8"/>
    </linearGradient>
  </defs>
  
  <circle cx="100" cy="100" r="80" fill="url(#featureGradient6)" />
  
  <!-- Support Icon -->
  <path d="M70,80 L70,120 L85,120 L100,135 L100,120 L130,120 L130,80 Z" fill="none" stroke="#ffffff" stroke-width="4" stroke-linejoin="round"/>
  <circle cx="85" cy="100" r="5" fill="#ffffff"/>
  <circle cx="100" cy="100" r="5" fill="#ffffff"/>
  <circle cx="115" cy="100" r="5" fill="#ffffff"/>
  <path d="M70,70 C70,55 85,45 100,45 C115,45 130,55 130,70" stroke="#ffffff" stroke-width="4" fill="none"/>
  <path d="M70,130 C70,145 85,155 100,155 C115,155 130,145 130,130" stroke="#ffffff" stroke-width="4" fill="none"/>
</svg>