<svg xmlns="http://www.w3.org/2000/svg" width="800" height="600" viewBox="0 0 800 600">
  <defs>
    <linearGradient id="gradient1" x1="0%" y1="0%" x2="100%" y2="100%">
      <stop offset="0%" stop-color="#667eea"/>
      <stop offset="100%" stop-color="#764ba2"/>
    </linearGradient>
    <linearGradient id="gradient2" x1="0%" y1="0%" x2="100%" y2="0%">
      <stop offset="0%" stop-color="#f6d365"/>
      <stop offset="100%" stop-color="#fda085"/>
    </linearGradient>
    <linearGradient id="gradient3" x1="0%" y1="0%" x2="100%" y2="0%">
      <stop offset="0%" stop-color="#4facfe"/>
      <stop offset="100%" stop-color="#00f2fe"/>
    </linearGradient>
  </defs>
  
  <!-- Background Elements -->
  <circle cx="650" cy="100" r="70" fill="url(#gradient1)" opacity="0.8"/>
  <circle cx="150" cy="450" r="100" fill="url(#gradient2)" opacity="0.5"/>
  <circle cx="400" cy="150" r="40" fill="url(#gradient3)" opacity="0.6"/>
  
  <!-- Main Dashboard UI -->
  <rect x="150" y="150" width="500" height="300" rx="10" fill="#ffffff" stroke="#e0e0e0" stroke-width="2"/>
  
  <!-- Top Navbar -->
  <rect x="150" y="150" width="500" height="50" rx="10" fill="#f8f9fa" stroke="#e0e0e0" stroke-width="1"/>
  <circle cx="180" cy="175" r="10" fill="#6366f1"/>
  <rect x="200" y="170" width="80" height="10" rx="5" fill="#d1d5db"/>
  <rect x="290" y="170" width="60" height="10" rx="5" fill="#d1d5db"/>
  <rect x="360" y="170" width="70" height="10" rx="5" fill="#d1d5db"/>
  <circle cx="620" cy="175" r="10" fill="#6366f1"/>
  
  <!-- Sidebar -->
  <rect x="150" y="200" width="100" height="250" fill="#f8f9fa" stroke="#e0e0e0" stroke-width="1"/>
  <rect x="170" y="220" width="60" height="8" rx="4" fill="#d1d5db"/>
  <rect x="170" y="240" width="60" height="8" rx="4" fill="#d1d5db"/>
  <rect x="170" y="260" width="60" height="8" rx="4" fill="#d1d5db"/>
  <rect x="170" y="280" width="60" height="8" rx="4" fill="#d1d5db"/>
  <rect x="170" y="300" width="60" height="8" rx="4" fill="#d1d5db"/>
  <rect x="170" y="320" width="60" height="8" rx="4" fill="#d1d5db"/>
  
  <!-- Main Content Area -->
  <rect x="260" y="210" width="380" height="230" rx="5" fill="#ffffff" stroke="#e0e0e0" stroke-width="1"/>
  
  <!-- Content Header -->
  <rect x="280" y="230" width="150" height="15" rx="2" fill="#6366f1"/>
  <rect x="280" y="255" width="340" height="10" rx="2" fill="#e5e7eb"/>
  <rect x="280" y="275" width="300" height="10" rx="2" fill="#e5e7eb"/>
  
  <!-- Charts Area -->
  <rect x="280" y="300" width="150" height="100" rx="5" fill="#f9fafb" stroke="#e5e7eb" stroke-width="1"/>
  <path d="M290,380 L300,350 L310,370 L320,330 L330,340 L340,320 L350,360 L360,340 L370,350 L380,320 L390,350 L400,330 L410,380" stroke="#6366f1" stroke-width="2" fill="none"/>
  
  <rect x="450" y="300" width="150" height="100" rx="5" fill="#f9fafb" stroke="#e5e7eb" stroke-width="1"/>
  <circle cx="500" cy="350" r="40" fill="none" stroke="#e5e7eb" stroke-width="10"/>
  <path d="M500,350 L500,350 L500,310" stroke="#6366f1" stroke-width="10" fill="none" stroke-linecap="round"/>
  <path d="M500,350 L500,350 L530,370" stroke="#fd7e14" stroke-width="10" fill="none" stroke-linecap="round"/>
  
  <!-- Data Table Area -->
  <rect x="280" y="410" width="320" height="10" rx="2" fill="#e5e7eb"/>
  <rect x="280" y="430" width="320" height="1" fill="#e5e7eb"/>
  <rect x="280" y="440" width="70" height="8" rx="2" fill="#e5e7eb"/>
  <rect x="360" y="440" width="70" height="8" rx="2" fill="#e5e7eb"/>
  <rect x="440" y="440" width="70" height="8" rx="2" fill="#e5e7eb"/>
  <rect x="520" y="440" width="40" height="8" rx="4" fill="#6366f1"/>
</svg>