<svg width="150" height="50" viewBox="0 0 150 50" xmlns="http://www.w3.org/2000/svg">
  <rect x="0" y="0" width="150" height="50" fill="none"/>
  <path d="M20,25 C20,18.5 25.5,13 32,13 L38,13 L38,19 L32,19 C28.7,19 26,21.7 26,25 C26,28.3 28.7,31 32,31 L38,31 L38,37 L32,37 C25.5,37 20,31.5 20,25 Z" fill="#667eea"/>
  <path d="M44,13 L50,13 C56.5,13 62,18.5 62,25 C62,31.5 56.5,37 50,37 L44,37 L44,31 L50,31 C53.3,31 56,28.3 56,25 C56,21.7 53.3,19 50,19 L44,19 L44,13 Z" fill="#764ba2"/>
  <path d="M32,22 L50,22 L50,28 L32,28 L32,22 Z" fill="#667eea"/>
  <text x="75" y="29" font-family="Arial, sans-serif" font-size="14" font-weight="bold" fill="#333333">ACME Inc.</text>
</svg>