<?xml version="1.0" encoding="UTF-8"?>
<svg width="120" height="24" xmlns="http://www.w3.org/2000/svg">
  <!-- Five stars with golden color -->
  <g fill="#FACC15" stroke="none">
    <!-- Star 1 -->
    <path d="M12 2L15.09 8.26L22 9.27L17 14.14L18.18 21.02L12 17.77L5.82 21.02L7 14.14L2 9.27L8.91 8.26L12 2Z" transform="scale(0.5) translate(0, 0)"/>
    
    <!-- Star 2 -->
    <path d="M12 2L15.09 8.26L22 9.27L17 14.14L18.18 21.02L12 17.77L5.82 21.02L7 14.14L2 9.27L8.91 8.26L12 2Z" transform="scale(0.5) translate(24, 0)"/>
    
    <!-- Star 3 -->
    <path d="M12 2L15.09 8.26L22 9.27L17 14.14L18.18 21.02L12 17.77L5.82 21.02L7 14.14L2 9.27L8.91 8.26L12 2Z" transform="scale(0.5) translate(48, 0)"/>
    
    <!-- Star 4 -->
    <path d="M12 2L15.09 8.26L22 9.27L17 14.14L18.18 21.02L12 17.77L5.82 21.02L7 14.14L2 9.27L8.91 8.26L12 2Z" transform="scale(0.5) translate(72, 0)"/>
    
    <!-- Star 5 - 90% filled -->
    <path d="M12 2L15.09 8.26L22 9.27L17 14.14L18.18 21.02L12 17.77L5.82 21.02L7 14.14L2 9.27L8.91 8.26L12 2Z" transform="scale(0.5) translate(96, 0)"/>
    <path d="M12 17.77L12 17.77L5.82 21.02L7 14.14L2 9.27L8.91 8.26L12 2L12 17.77Z" transform="scale(0.5) translate(96, 0)" fill="#E5E7EB"/>
  </g>
</svg>