<?xml version="1.0" encoding="UTF-8" standalone="no"?>
<svg width="150" height="30" viewBox="0 0 150 30" xmlns="http://www.w3.org/2000/svg">
  <defs>
    <linearGradient id="starGradient" x1="0%" y1="0%" x2="100%" y2="0%">
      <stop offset="0%" stop-color="#FFD700" />
      <stop offset="90%" stop-color="#FFD700" />
      <stop offset="90%" stop-color="#e2e8f0" />
      <stop offset="100%" stop-color="#e2e8f0" />
    </linearGradient>
  </defs>
  
  <!-- Star 1 -->
  <path d="M15 2.5l3.09 6.26L25 10.25l-5 4.87 1.18 6.88L15 17.93l-6.18 3.25L10 15.12 5 10.25l6.91-1.01L15 2.5z" 
    fill="#FFD700" stroke="#FFD700" stroke-width="0.5"/>
  
  <!-- Star 2 -->
  <path d="M45 2.5l3.09 6.26L55 10.25l-5 4.87 1.18 6.88L45 17.93l-6.18 3.25L40 15.12 35 10.25l6.91-1.01L45 2.5z" 
    fill="#FFD700" stroke="#FFD700" stroke-width="0.5"/>
  
  <!-- Star 3 -->
  <path d="M75 2.5l3.09 6.26L85 10.25l-5 4.87 1.18 6.88L75 17.93l-6.18 3.25L70 15.12 65 10.25l6.91-1.01L75 2.5z" 
    fill="#FFD700" stroke="#FFD700" stroke-width="0.5"/>
  
  <!-- Star 4 -->
  <path d="M105 2.5l3.09 6.26L115 10.25l-5 4.87 1.18 6.88L105 17.93l-6.18 3.25L100 15.12 95 10.25l6.91-1.01L105 2.5z" 
    fill="#FFD700" stroke="#FFD700" stroke-width="0.5"/>
  
  <!-- Star 5 (90% filled) -->
  <path d="M135 2.5l3.09 6.26L145 10.25l-5 4.87 1.18 6.88L135 17.93l-6.18 3.25L130 15.12 125 10.25l6.91-1.01L135 2.5z" 
    fill="url(#starGradient)" stroke="#FFD700" stroke-width="0.5"/>

  <!-- Star Rating Text -->
  <text x="75" y="27" font-family="Arial, sans-serif" font-size="10" text-anchor="middle" fill="#666">
    4.9 out of 5
  </text>
</svg>